<svg xmlns="http://www.w3.org/2000/svg" width="0" height="0">
  <symbol viewBox="0 0 21 18" id="arrow-right">
    <path fill-rule="evenodd" clip-rule="evenodd" d="M0 8.99999C0 8.66847 0.131696 8.35053 0.366117 8.11611C0.600537 7.88169 0.918479 7.74999 1.25 7.74999H15.7325L10.365 2.38499C10.1303 2.15028 9.99842 1.83193 9.99842 1.49999C9.99842 1.16805 10.1303 0.849709 10.365 0.614992C10.5997 0.380276 10.9181 0.248413 11.25 0.248413C11.5819 0.248413 11.9003 0.380276 12.135 0.614992L19.635 8.11499C19.7514 8.23111 19.8438 8.36905 19.9068 8.52091C19.9698 8.67277 20.0022 8.83557 20.0022 8.99999C20.0022 9.16441 19.9698 9.32721 19.9068 9.47908C19.8438 9.63094 19.7514 9.76888 19.635 9.88499L12.135 17.385C11.9003 17.6197 11.5819 17.7516 11.25 17.7516C10.9181 17.7516 10.5997 17.6197 10.365 17.385C10.1303 17.1503 9.99842 16.8319 9.99842 16.5C9.99842 16.1681 10.1303 15.8497 10.365 15.615L15.7325 10.25H1.25C0.918479 10.25 0.600537 10.1183 0.366117 9.88388C0.131696 9.64946 0 9.33151 0 8.99999Z" fill="#5374FF"></path>
  </symbol>

   <symbol viewBox="0 0 101 101" id="user">
    <path d="M50.4 54.5c10.1 0 18.2-8.2 18.2-18.2S60.5 18 50.4 18s-18.2 8.2-18.2 18.2 8.1 18.3 18.2 18.3zm0-31.7c7.4 0 13.4 6 13.4 13.4s-6 13.4-13.4 13.4S37 43.7 37 36.3s6-13.5 13.4-13.5zM18.8 83h63.4c1.3 0 2.4-1.1 2.4-2.4 0-12.6-10.3-22.9-22.9-22.9H39.3c-12.6 0-22.9 10.3-22.9 22.9 0 1.3 1.1 2.4 2.4 2.4zm20.5-20.5h22.4c9.2 0 16.7 6.8 17.9 15.7H21.4c1.2-8.9 8.7-15.7 17.9-15.7z"></path>
  </symbol>
</svg>